Coordinates
version=1
nRows=14
nColumns=24
inDegrees=yes

Units are S.I. units (second, meters, Newtons, ...)
Angles are in degrees.

endheader
time	pelvis_tilt	pelvis_list	pelvis_rotation	pelvis_tx	pelvis_ty	pelvis_tz	hip_flexion_r	hip_adduction_r	hip_rotation_r	knee_angle_r	ankle_angle_r	subtalar_angle_r	mtp_angle_r	hip_flexion_l	hip_adduction_l	hip_rotation_l	knee_angle_l	ankle_angle_l	subtalar_angle_l	mtp_angle_l	lumbar_extension	lumbar_bending	lumbar_rotation
      3.33500000	    -17.79928873	     -5.61598455	      3.95366650	     -1.88887227	     -0.04325917	     -0.32537332	     45.82453962	      3.61290242	    -17.21661181	    -16.62962266	     -0.66247625	     -0.93951540	     17.44735732	     -2.10350141	     -4.36471598	     -4.42730371	    -17.76700687	      3.25215118	     13.16121222	     13.22348602	     21.31401869	      0.88800759	    -22.56343091
      3.34000000	    -17.74159779	     -5.89544560	      4.00217807	     -1.88017676	     -0.04437489	     -0.32529601	     45.78969333	      3.92126377	    -16.87037810	    -17.35365059	     -1.44893019	     -2.13395364	     17.56038269	     -2.17307176	     -4.84946615	     -4.53495016	    -18.69626017	      2.50575962	     13.70072539	     13.31338425	     21.45843894	      1.17825673	    -22.80414646
      3.34500000	    -17.75749052	     -6.17002615	      4.04070491	     -1.87152138	     -0.04551886	     -0.32516089	     45.85295851	      4.23956891	    -16.41866624	    -18.11460451	     -2.33484325	     -3.51606440	     17.57920452	     -2.10604005	     -5.33869452	     -4.66816545	    -19.68066055	      1.59934859	     14.19053188	     13.78528583	     21.67422869	      1.45785529	    -23.02484660
      3.35000000	    -17.79982144	     -6.45761853	      4.04671859	     -1.86285436	     -0.04666132	     -0.32496290	     45.96762222	      4.60364214	    -15.88531366	    -18.92289189	     -3.25182987	     -5.06993611	     17.47205114	     -1.96858353	     -5.85921469	     -4.89434698	    -20.70263599	      0.52750849	     14.66961089	     14.64670571	     21.91974317	      1.75359805	    -23.21376785
      3.35500000	    -17.83508192	     -6.71661771	      4.05783303	     -1.85425219	     -0.04773381	     -0.32469400	     46.11698682	      4.95403728	    -15.26954496	    -19.82758372	     -4.12683332	     -6.70588910	     17.08615954	     -1.80414871	     -6.37243015	     -5.12761411	    -21.70193974	     -0.78732946	     15.13550775	     16.20062236	     22.14270985	      2.01021348	    -23.40565156
      3.36000000	    -17.92826736	     -7.07426334	      4.06274051	     -1.84569912	     -0.04882468	     -0.32452390	     46.35075830	      5.38040466	    -14.66499440	    -20.77028271	     -4.98988078	     -8.36797733	     16.50032039	     -1.47058530	     -6.98330452	     -5.35670772	    -22.88512079	     -2.10558645	     15.48526359	     17.34001813	     22.42795282	      2.37552450	    -23.62806100
      3.36500000	    -17.94873595	     -7.35904481	      4.11156413	     -1.83718393	     -0.04976562	     -0.32428141	     46.54285366	      5.75049814	    -13.95539792	    -21.85250528	     -5.54751567	     -9.90972582	     15.07970815	     -1.19442040	     -7.54075182	     -5.53468655	    -23.96246985	     -3.82934989	     15.67176499	     19.68512359	     22.62430556	      2.63797735	    -23.87817240
      3.37000000	    -18.00261351	     -7.68257237	      4.12884088	     -1.82872101	     -0.05071498	     -0.32403750	     46.80441950	      6.16783149	    -13.31609828	    -23.00574695	     -6.00463929	    -11.42203139	     13.52440232	     -0.80293420	     -8.14057814	     -5.71524198	    -25.18302870	     -5.57281699	     15.85961610	     21.49176188	     22.84800136	      2.95349309	    -24.07603963
      3.37500000	    -18.11515327	     -8.06074577	      4.10173133	     -1.82026706	     -0.05172959	     -0.32375891	     47.13258362	      6.65450830	    -12.70996463	    -24.16087466	     -6.34821128	    -12.90235916	     12.41216332	     -0.25722675	     -8.82118140	     -5.99835660	    -26.58511145	     -7.30897168	     16.18410373	     22.67362769	     23.13614770	      3.33401751	    -24.24987295
      3.38000000	    -18.06450705	     -8.33105350	      4.18579501	     -1.81194635	     -0.05245814	     -0.32354517	     47.30764268	      7.00631889	    -12.14648512	    -25.46091722	     -6.25984697	    -13.98102816	      9.96855895	      0.13695016	     -9.36752825	     -6.01458331	    -27.81112164	     -9.52160481	     16.01375375	     25.27777705	     23.22296235	      3.57125191	    -24.48113130
      3.38500000	    -18.12488081	     -8.68857780	      4.19522868	     -1.80365225	     -0.05335479	     -0.32324622	     47.57577767	      7.46465743	    -11.65703233	    -26.66503556	     -6.17516259	    -15.13244055	      8.64561590	      0.76782373	    -10.04079301	     -6.18704880	    -29.32338867	    -11.55535859	     16.19041009	     26.53469683	     23.42686148	      3.90764075	    -24.68191741
      3.39000000	    -18.04187266	     -8.98625502	      4.26636797	     -1.79540904	     -0.05398070	     -0.32311103	     47.67265702	      7.82841093	    -11.34185984	    -27.92313234	     -5.73571696	    -15.83151007	      6.41068036	      1.26383962	    -10.60579306	     -6.17847109	    -30.70200091	    -13.97806314	     15.72982171	     28.70694014	     23.46895827	      4.19085260	    -24.87048509
      3.39500000	    -17.94938654	     -9.28616392	      4.35197098	     -1.78729568	     -0.05458865	     -0.32294891	     47.71384675	      8.19038343	    -11.04832984	    -29.08758152	     -5.17877483	    -16.43746153	      4.76957824	      1.84753269	    -11.18051744	     -6.11810449	    -32.22731859	    -16.34633117	     15.41853761	     30.13780890	     23.47942107	      4.46164501	    -25.10015112
      3.40000000	    -17.84164317	     -9.58115225	      4.45104186	     -1.77928029	     -0.05513186	     -0.32281353	     47.69172851	      8.52488130	    -10.89018360	    -30.16941064	     -4.51997981	    -16.89993069	      3.44088517	      2.48609162	    -11.73686149	     -5.99067130	    -33.81579790	    -18.74147757	     15.01942230	     31.28299793	     23.46282547	      4.72491233	    -25.31962391
